# xmcd CD database file
#
# Track frame offsets:
#	150
#	16893
#	35899
#	46909
#	57672
#	74665
#	91479
#	106138
#	126915
#	149197
#	167982
#
# Disc length: 2496 seconds
#
# Revision: 2
# Processed by: cddbd v1.5.2PL0 Copyright (c) Steve Scherf et al.
# Submitted via: CDex 1.70beta2
#
DISCID=ac09be0b
DTITLE=山崎まさよし - HOBO's MUSIC
DYEAR=2010
DGENRE=JPop
TTITLE0=シングルマン
TTITLE1=君と見てた空
TTITLE2=創世歌
TTITLE3=Introduction
TTITLE4=Let's form a R&R band
TTITLE5=ぼくのオンリーワン
TTITLE6=ルナちっく
TTITLE7=HOBO Walking
TTITLE8=ブランコ
TTITLE9=花火
TTITLE10=I'm sorry
EXTD=YEAR: 2010
EXTT0=
EXTT1=
EXTT2=
EXTT3=
EXTT4=
EXTT5=
EXTT6=
EXTT7=
EXTT8=
EXTT9=
EXTT10=
PLAYORDER=
